<svg width="104" height="104" viewBox="0 0 104 104" fill="none" xmlns="http://www.w3.org/2000/svg">
<path d="M0 90.5902C0 97.997 6.00378 104 13.4098 104H90.5902C97.997 104 104 97.9962 104 90.5902V13.4098C104 6.00296 97.9962 0 90.5902 0H13.4098C6.00296 0 0 6.00378 0 13.4098V90.5902Z" fill="#563D7C"/>
<path d="M43.1265 46.003V31.275H56.0907C57.3254 31.275 58.5159 31.3779 59.6624 31.5837C60.8089 31.7894 61.8231 32.1569 62.705 32.6861C63.587 33.2152 64.2925 33.9501 64.8216 34.8908C65.3508 35.8316 65.6154 37.0368 65.6154 38.5067C65.6154 41.1525 64.8216 43.0633 63.2342 44.2391C61.6467 45.415 59.6183 46.003 57.149 46.003H43.1265ZM29.2804 20.5156V83.4844H59.7947C62.6169 83.4844 65.3655 83.1316 68.0406 82.4261C70.7158 81.7205 73.0969 80.6329 75.1841 79.163C77.2713 77.6931 78.9323 75.797 80.167 73.4746C81.4016 71.1522 82.019 68.4036 82.019 65.2287C82.019 61.2895 81.0636 57.9235 79.1528 55.1308C77.2419 52.3381 74.3463 50.3832 70.4659 49.2661C73.288 47.9138 75.4193 46.1794 76.8598 44.0628C78.3002 41.9462 79.0205 39.3004 79.0205 36.1255C79.0205 33.1858 78.5354 30.7165 77.5653 28.7174C76.5952 26.7184 75.2282 25.1163 73.4644 23.911C71.7006 22.7057 69.584 21.8385 67.1146 21.3093C64.6452 20.7802 61.9113 20.5156 58.9128 20.5156H29.2804ZM43.1265 72.725V55.4395H58.2073C61.2058 55.4395 63.6163 56.1303 65.439 57.512C67.2616 58.8936 68.1729 61.2013 68.1729 64.435C68.1729 66.0813 67.8936 67.4335 67.3351 68.4918C66.7765 69.5501 66.0269 70.3879 65.0862 71.0053C64.1455 71.6226 63.0578 72.0636 61.8231 72.3281C60.5884 72.5927 59.295 72.725 57.9427 72.725H43.1265Z" fill="white"/>
</svg>
