<svg width="84" height="125" viewBox="0 0 84 125" fill="none" xmlns="http://www.w3.org/2000/svg">
<path d="M41.9488 124.684L7.76401 114.67L0.146088 24.5034H83.8539L76.2279 114.656L41.9488 124.684Z" fill="#264DE4"/>
<path d="M69.6992 108.915L76.2162 31.8759H42V117.019L69.6992 108.915Z" fill="#2965F1"/>
<path d="M17.61 65.3173L18.5492 76.3757H42V65.3173H17.61Z" fill="#EBEBEB"/>
<path d="M15.7228 42.9344L16.6754 53.9931H42V42.9344H15.7228Z" fill="#EBEBEB"/>
<path d="M42 94.0374L41.9541 94.0503L30.2831 90.7247L29.5371 81.905H19.0175L20.4856 99.2685L41.9518 105.557L42 105.543V94.0374Z" fill="#EBEBEB"/>
<path d="M19.8462 0H32.5385V5.60105H25.1539V11.2021H32.5385V16.8031H19.8462V0Z" fill="white"/>
<path d="M35.0769 0H47.7692V4.87048H40.3846V5.84457H47.7692V17.0467H35.0769V11.9327H42.4615V10.9586H35.0769V0Z" fill="white"/>
<path d="M50.3077 0H63V4.87048H55.6154V5.84457H63V17.0467H50.3077V11.9327H57.6923V10.9586H50.3077V0Z" fill="white"/>
<path d="M66.3229 65.3172L68.2147 42.9344H41.9638V53.9931H56.7302L55.7767 65.3172H41.9638V76.3756H54.8679L53.6515 90.7177L41.9638 94.0467V105.552L63.447 99.2686L63.6046 97.4002L66.0672 68.2867L66.3229 65.3172Z" fill="white"/>
</svg>
