<svg width="90" height="87" viewBox="0 0 90 87" fill="none" xmlns="http://www.w3.org/2000/svg">
<path d="M45.0004 0C20.1506 0 0 19.9427 0 44.5444C0 64.2252 12.894 80.9224 30.774 86.8124C33.023 87.2247 33.8486 85.8461 33.8486 84.6696C33.8486 83.6074 33.8069 80.0984 33.7875 76.3763C21.2684 79.0709 18.6267 71.1207 18.6267 71.1207C16.5797 65.972 13.6302 64.6029 13.6302 64.6029C9.54734 61.8382 13.938 61.8951 13.938 61.8951C18.4568 62.2093 20.8362 66.4854 20.8362 66.4854C24.8498 73.2952 31.3634 71.3265 33.9314 70.1883C34.3353 67.3093 35.5015 65.3442 36.7884 64.2319C26.7932 63.1055 16.2861 59.286 16.2861 42.2179C16.2861 37.3546 18.044 33.381 20.9226 30.2615C20.4554 29.1396 18.9151 24.609 21.3586 18.4734C21.3586 18.4734 25.1374 17.2762 33.7369 23.0393C37.3264 22.0524 41.1761 21.5574 45.0004 21.5405C48.8247 21.5574 52.6773 22.0524 56.2736 23.0393C64.8626 17.2762 68.6362 18.4734 68.6362 18.4734C71.0857 24.609 69.5446 29.1396 69.0774 30.2615C71.9627 33.381 73.7087 37.3546 73.7087 42.2179C73.7087 59.3266 63.1815 63.0937 53.1609 64.1965C54.775 65.5788 56.2132 68.2896 56.2132 72.4455C56.2132 78.4056 56.161 83.2024 56.161 84.6696C56.161 85.8549 56.9711 87.2439 59.2521 86.8065C77.1224 80.9098 90 64.2186 90 44.5444C90 19.9427 69.8524 0 45.0004 0ZM16.8541 63.4544C16.755 63.6757 16.4033 63.7421 16.0828 63.5901C15.7564 63.4448 15.5731 63.1431 15.6789 62.9211C15.7758 62.6932 16.1283 62.6297 16.4539 62.7824C16.7811 62.9277 16.9674 63.2324 16.8541 63.4544ZM19.0676 65.4095C18.853 65.6064 18.4335 65.515 18.1488 65.2037C17.8545 64.8931 17.7993 64.4778 18.0169 64.2779C18.2382 64.081 18.6451 64.1732 18.9402 64.4837C19.2345 64.798 19.2919 65.2103 19.0676 65.4095ZM20.5862 67.9109C20.3105 68.1005 19.8596 67.9227 19.5809 67.5266C19.3052 67.1305 19.3052 66.6555 19.5869 66.4652C19.8663 66.2749 20.3105 66.446 20.5929 66.8391C20.8679 67.2419 20.8679 67.7169 20.5862 67.9109ZM23.1544 70.808C22.9077 71.0772 22.3824 71.0049 21.9979 70.6376C21.6044 70.2784 21.4949 69.7686 21.7423 69.4994C21.9919 69.2294 22.5202 69.3054 22.9077 69.6698C23.2982 70.0283 23.4174 70.5417 23.1544 70.808ZM26.4735 71.786C26.3647 72.1349 25.8588 72.2935 25.3491 72.1452C24.8401 71.9925 24.507 71.5839 24.6098 71.2313C24.7156 70.8802 25.2239 70.7149 25.7373 70.8735C26.2455 71.0255 26.5794 71.4312 26.4735 71.786ZM30.2509 72.2008C30.2635 72.5682 29.8313 72.8728 29.2963 72.8795C28.7583 72.8913 28.3231 72.594 28.3171 72.2325C28.3171 71.8615 28.7396 71.5598 29.2777 71.551C29.8127 71.5406 30.2509 71.8357 30.2509 72.2008ZM33.9617 72.06C34.0258 72.4185 33.6539 72.7866 33.1226 72.8847C32.6002 72.9791 32.1166 72.7578 32.0503 72.4023C31.9855 72.0349 32.364 71.6669 32.8856 71.5717C33.4177 71.4802 33.8939 71.6956 33.9617 72.06Z" fill="#161614"/>
</svg>
