<svg width="89" height="130" viewBox="0 0 89 130" fill="none" xmlns="http://www.w3.org/2000/svg">
<path d="M88.8452 25.4835L80.7653 119.242L44.4457 129.672L8.22616 119.257L0.154785 25.4835H88.8452Z" fill="#E44D26"/>
<path d="M44.5 121.7L73.848 113.272L80.7528 33.1509H44.5V121.7Z" fill="#F16529"/>
<path d="M28.793 56.1529H44.5V44.6519H16.6587L16.9244 47.7374L19.6534 79.4307H44.5V67.9299H29.8077L28.793 56.1529Z" fill="#EBEBEB"/>
<path d="M31.2953 85.1813H20.1495L21.705 103.239L44.4489 109.779L44.5 109.765V97.7989L44.4514 97.8123L32.0857 94.3538L31.2953 85.1813Z" fill="#EBEBEB"/>
<path d="M8.40662 0H14.0491V5.77444H19.2106V0H24.8533V17.4864H19.2108V11.6309H14.0493V17.4864H8.40686V0H8.40662Z" fill="white"/>
<path d="M32.2733 5.79875H27.3059V0H42.8858V5.79875H37.9162V17.4864H32.2735V5.79875H32.2733Z" fill="white"/>
<path d="M45.3585 0H51.242L54.8612 6.1442L58.4767 0H64.3624V17.4864H58.7432V8.81919L54.8612 15.0366H54.7641L50.8794 8.81919V17.4864H45.3585V0Z" fill="white"/>
<path d="M67.1706 0H72.8147V11.7064H80.7497V17.4864H67.1706V0Z" fill="white"/>
<path d="M44.4616 79.4307H58.1339L56.8451 94.3465L44.4616 97.8086V109.774L67.2236 103.239L67.3906 101.296L69.9997 71.0182L70.2706 67.9299H44.4616V79.4307Z" fill="white"/>
<path d="M44.4616 56.1247V56.1529H71.2809L71.5037 53.5678L72.0096 47.7374L72.2751 44.6519H44.4616V56.1247Z" fill="white"/>
</svg>
