<svg width="97" height="98" viewBox="0 0 97 98" fill="none" xmlns="http://www.w3.org/2000/svg">
<path d="M0 0H97V98H0V0Z" fill="#F7DF1E"/>
<path d="M25.5048 81.8959L32.928 77.3573C34.36 79.9225 35.6627 82.093 38.7875 82.093C41.7828 82.093 43.6712 80.9092 43.6712 76.3048V44.9915H52.7868V76.435C52.7868 85.9737 47.2525 90.3154 39.1783 90.3154C31.8862 90.3154 27.6533 86.4997 25.5047 81.8951" fill="black"/>
<path d="M57.7381 80.9091L65.1603 76.5674C67.1141 79.7912 69.6535 82.1592 74.146 82.1592C77.923 82.1592 80.3316 80.2513 80.3316 77.6199C80.3316 74.4623 77.8574 73.3439 73.6901 71.5025L71.4119 70.5151C64.8351 67.6869 60.4724 64.1347 60.4724 56.6352C60.4724 49.7279 65.6813 44.465 73.8207 44.465C79.6158 44.465 83.7829 46.5045 86.7777 51.833L79.6804 56.4376C78.1176 53.6091 76.4252 52.491 73.8209 52.491C71.1512 52.491 69.4582 54.2013 69.4582 56.4376C69.4582 59.2006 71.1512 60.3192 75.0575 62.0297L77.3363 63.0164C85.0847 66.3715 89.4474 69.7919 89.4474 77.4883C89.4474 85.7776 83.0014 90.3162 74.3416 90.3162C65.877 90.3162 60.4074 86.2379 57.7383 80.9091" fill="black"/>
</svg>
