<svg width="147" height="110" viewBox="0 0 147 110" fill="none" xmlns="http://www.w3.org/2000/svg">
<path d="M126.229 63.055C121.115 63.0817 116.67 64.3106 112.948 66.1273C111.582 63.429 110.217 61.0247 109.976 59.2615C109.708 57.2044 109.387 55.9488 109.708 53.491C110.029 51.0332 111.475 47.5335 111.449 47.2663C111.422 46.9992 111.127 45.7435 108.182 45.7168C105.237 45.6901 102.693 46.2778 102.398 47.0526C102.104 47.8273 101.541 49.5905 101.167 51.4072C100.658 54.0787 95.2759 63.616 92.1966 68.6118C91.2059 66.6616 90.3491 64.9518 90.1617 63.5893C89.8939 61.5322 89.5726 60.2766 89.8939 57.8188C90.2152 55.361 91.6611 51.8613 91.6343 51.5942C91.6076 51.327 91.313 50.0714 88.3677 50.0447C85.4223 50.018 82.8786 50.6057 82.5841 51.3805C82.2895 52.1552 81.9682 53.9718 81.3524 55.735C80.7365 57.4982 73.5873 73.4205 71.713 77.5347C70.7491 79.6452 69.919 81.3282 69.33 82.477C69.33 82.477 69.3032 82.5571 69.2229 82.6907C68.7141 83.6792 68.4196 84.2135 68.4196 84.2135C68.4196 84.2135 68.4196 84.2135 68.4196 84.2402C68.018 84.9615 67.5895 85.6294 67.3753 85.6294C67.2147 85.6294 66.9201 83.7059 67.4289 81.0878C68.4999 75.5577 71.0436 66.9554 71.0169 66.6616C71.0169 66.5013 71.4988 65.0052 69.3567 64.2305C67.2682 63.4557 66.5185 64.7381 66.3311 64.7381C66.1436 64.7381 66.0098 65.1922 66.0098 65.1922C66.0098 65.1922 68.3393 55.5213 61.5649 55.5213C57.3343 55.5213 51.4972 60.1431 48.6054 64.3106C46.7846 65.2991 42.9021 67.4096 38.7518 69.6804C37.172 70.562 35.5387 71.4436 34.0125 72.2718C33.9054 72.1649 33.7983 72.0313 33.6912 71.9245C25.4977 63.1886 10.3425 57.0174 10.9852 45.2894C11.2261 41.0149 12.6988 29.7945 40.0906 16.1698C62.636 5.08294 80.5759 8.1552 83.6819 14.9676C88.1267 24.6919 74.0693 42.7514 50.7742 45.3695C41.8846 46.358 37.2256 42.9384 36.0475 41.6561C34.8158 40.3203 34.6283 40.2402 34.1731 40.5074C33.4234 40.9081 33.9054 42.1103 34.1731 42.8049C34.8693 44.6215 37.7343 47.8273 42.5808 49.4035C46.8649 50.7927 57.2808 51.5675 69.8923 46.7053C84.0032 41.2554 95.0349 26.1078 91.795 13.4181C88.5551 0.541351 67.1343 -3.70637 46.8649 3.48003C34.8158 7.75447 21.7491 14.4867 12.3507 23.2493C1.18516 33.6683 -0.582051 42.7247 0.1409 46.5183C2.73817 59.9828 21.3475 68.7454 28.7912 75.2372C28.4163 75.4509 28.0682 75.6379 27.7737 75.7982C24.0518 77.6415 9.86057 85.0417 6.32615 92.8692C2.30975 101.739 6.96877 108.097 10.048 108.952C19.607 111.597 29.4338 106.841 34.7087 98.987C39.9835 91.1327 39.3409 80.9275 36.9043 76.2523C36.8775 76.1989 36.8507 76.1455 36.7972 76.092C37.7611 75.531 38.7518 74.9433 39.7158 74.3823C41.6169 73.2602 43.4912 72.2183 45.0977 71.3635C44.1873 73.848 43.5179 76.8134 43.1966 81.0878C42.795 86.1103 44.8567 92.6288 47.5611 95.1934C48.766 96.3155 50.1852 96.3422 51.0955 96.3422C54.2551 96.3422 55.6742 93.7241 57.254 90.6251C59.1819 86.8316 60.9223 82.4236 60.9223 82.4236C60.9223 82.4236 58.7535 94.3386 64.6442 94.3386C66.7863 94.3386 68.9551 91.5602 69.919 90.1443V90.171C69.919 90.171 69.9726 90.0908 70.0797 89.9038C70.2939 89.5565 70.4278 89.3428 70.4278 89.3428V89.2894C71.2846 87.7933 73.2125 84.4005 76.0775 78.7636C79.7726 71.497 83.3338 62.4139 83.3338 62.4139C83.3338 62.4139 83.6551 64.6312 84.7529 68.3179C85.3955 70.4819 86.7343 72.8595 87.8054 75.157C86.9486 76.3592 86.413 77.0271 86.413 77.0271C86.413 77.0271 86.413 77.0271 86.4398 77.0538C85.7436 77.9621 84.9939 78.9506 84.1638 79.9123C81.2453 83.3853 77.7644 87.3659 77.2824 88.5146C76.7201 89.8771 76.854 90.8656 77.9251 91.667C78.7016 92.2548 80.0939 92.3349 81.513 92.2548C84.1371 92.0678 85.9846 91.4266 86.895 91.0259C88.3141 90.5183 89.9742 89.7435 91.5272 88.5948C94.3923 86.4843 96.1327 83.4655 95.972 79.4849C95.8917 77.2942 95.1688 75.1036 94.2852 73.0465C94.5529 72.6725 94.7939 72.2985 95.0617 71.9245C99.5868 65.3258 103.094 58.086 103.094 58.086C103.094 58.086 103.416 60.3033 104.514 63.9901C105.049 65.8601 106.147 67.8905 107.111 69.8674C102.853 73.3137 100.229 77.321 99.2923 79.939C97.6054 84.8012 98.9174 86.9919 101.408 87.4995C102.532 87.7399 104.139 87.2056 105.317 86.698C106.816 86.2171 108.584 85.389 110.27 84.16C113.135 82.0495 115.893 79.1109 115.733 75.1303C115.652 73.3137 115.17 71.5237 114.501 69.7873C118.116 68.2912 122.775 67.463 128.719 68.1576C141.464 69.6537 143.981 77.5881 143.499 80.9275C143.017 84.2669 140.34 86.0835 139.456 86.6446C138.573 87.2056 138.278 87.3926 138.358 87.7933C138.465 88.3811 138.894 88.3543 139.644 88.2475C140.688 88.0605 146.338 85.5492 146.579 79.4047C146.98 71.5505 139.483 62.9749 126.229 63.055ZM27.9076 96.1285C23.677 100.724 17.7863 102.46 15.2425 100.991C12.5114 99.4145 13.5824 92.6288 18.777 87.7666C21.9365 84.8012 26.0065 82.0495 28.7108 80.3665C29.3267 79.9925 30.2371 79.4582 31.3349 78.7903C31.5223 78.6834 31.6294 78.63 31.6294 78.63C31.8436 78.4964 32.0578 78.3628 32.272 78.2293C34.1731 85.1752 32.3524 91.293 27.9076 96.1285ZM58.6999 75.2372C57.2272 78.817 54.148 87.9803 52.2737 87.4727C50.6671 87.0453 49.6764 80.0993 51.9524 73.2335C53.1037 69.7873 55.5404 65.6731 56.9595 64.0702C59.2622 61.5055 61.8059 60.6506 62.4218 61.6925C63.1983 63.055 59.6103 72.9931 58.6999 75.2372ZM84.1103 87.3659C83.4945 87.6865 82.9054 87.9002 82.6376 87.7399C82.4502 87.633 82.9054 87.2056 82.9054 87.2056C82.9054 87.2056 86.0917 83.786 87.3502 82.2366C88.0732 81.3282 88.93 80.2596 89.8404 79.0574V79.4047C89.8404 83.4922 85.8775 86.2438 84.1103 87.3659ZM103.71 82.9044C103.255 82.5839 103.335 81.5152 104.862 78.1758C105.451 76.8668 106.843 74.6761 109.226 72.5656C109.494 73.4205 109.681 74.2487 109.655 75.0234C109.628 80.1795 105.933 82.103 103.71 82.9044Z" fill="#CD6799"/>
</svg>
