<svg width="64" height="64" viewBox="0 0 64 64" fill="none" xmlns="http://www.w3.org/2000/svg">
<circle cx="31.9721" cy="31.9721" r="31.9721" fill="#D9D9D9"/>
<g clip-path="url(#clip0_504_34)">
<path d="M13.4024 15.542C12.5365 15.542 11.828 16.2505 11.828 17.1164V19.291L28.8019 33.2243C30.8387 34.8971 33.7612 34.8971 35.798 33.2243L52.762 19.291V17.1164C52.762 16.2505 52.0536 15.542 51.1876 15.542H13.4024ZM11.828 25.4016V42.3066C11.828 43.1725 12.5365 43.8809 13.4024 43.8809H51.1876C52.0536 43.8809 52.762 43.1725 52.762 42.3066V25.4016L38.7894 36.8749C35.0108 39.9745 29.5694 39.9745 25.8007 36.8749L11.828 25.4016ZM7.10486 17.1164C7.10486 13.6429 9.92891 10.8188 13.4024 10.8188H51.1876C54.6611 10.8188 57.4852 13.6429 57.4852 17.1164V42.3066C57.4852 45.78 54.6611 48.6041 51.1876 48.6041H13.4024C9.92891 48.6041 7.10486 45.78 7.10486 42.3066V17.1164Z" fill="#172E28"/>
</g>
<defs>
<clipPath id="clip0_504_34">
<rect width="50.3803" height="50.3803" fill="white" transform="translate(7.10486 4.5213)"/>
</clipPath>
</defs>
</svg>
