<svg width="64" height="64" viewBox="0 0 64 64" fill="none" xmlns="http://www.w3.org/2000/svg">
<circle cx="31.9721" cy="31.9721" r="31.9721" fill="#D9D9D9"/>
<g clip-path="url(#clip0_504_32)">
<path d="M25.0251 44.7817C25.0251 44.9583 24.8214 45.0996 24.5646 45.0996C24.2724 45.126 24.0687 44.9848 24.0687 44.7817C24.0687 44.605 24.2724 44.4637 24.5292 44.4637C24.7949 44.4373 25.0251 44.5785 25.0251 44.7817ZM22.2712 44.3843C22.2092 44.5609 22.3863 44.764 22.6519 44.817C22.8822 44.9053 23.1478 44.817 23.2009 44.6404C23.2541 44.4637 23.0858 44.2606 22.8202 44.1812C22.5899 44.1194 22.3331 44.2077 22.2712 44.3843ZM26.1851 44.2341C25.9283 44.296 25.7512 44.4637 25.7778 44.6669C25.8043 44.8435 26.0346 44.9583 26.3002 44.8965C26.557 44.8346 26.7341 44.6669 26.7076 44.4902C26.681 44.3225 26.4419 44.2077 26.1851 44.2341ZM32.0118 10.395C19.7297 10.395 10.3345 19.6937 10.3345 31.9418C10.3345 41.7351 16.5153 50.1154 25.3439 53.0648C26.4773 53.2679 26.8758 52.5703 26.8758 51.9963C26.8758 51.4488 26.8492 48.4287 26.8492 46.5743C26.8492 46.5743 20.6507 47.8989 19.349 43.9427C19.349 43.9427 18.3395 41.373 16.8872 40.7107C16.8872 40.7107 14.8594 39.3243 17.0289 39.3508C17.0289 39.3508 19.2339 39.5274 20.447 41.6291C22.3863 45.0377 25.6361 44.0575 26.9024 43.4747C27.106 42.0618 27.6816 41.0816 28.3192 40.4988C23.3692 39.9513 18.3749 39.236 18.3749 30.7409C18.3749 28.3124 19.0479 27.0938 20.4647 25.5396C20.2345 24.9656 19.4818 22.599 20.6949 19.5435C22.5457 18.9696 26.805 21.9278 26.805 21.9278C28.576 21.4333 30.4798 21.1772 32.366 21.1772C34.2521 21.1772 36.156 21.4333 37.927 21.9278C37.927 21.9278 42.1863 18.9607 44.037 19.5435C45.2501 22.6078 44.4975 24.9656 44.2672 25.5396C45.684 27.1026 46.5518 28.3213 46.5518 30.7409C46.5518 39.2625 41.3362 39.9424 36.3862 40.4988C37.2009 41.1964 37.8916 42.521 37.8916 44.5962C37.8916 47.5721 37.865 51.2545 37.865 51.9787C37.865 52.5527 38.2723 53.2503 39.3969 53.0472C48.252 50.1154 54.2558 41.7351 54.2558 31.9418C54.2558 19.6937 44.2938 10.395 32.0118 10.395ZM18.9416 40.852C18.8265 40.9403 18.8531 41.1434 19.0036 41.3112C19.1453 41.4525 19.349 41.5143 19.4641 41.3995C19.5792 41.3112 19.5526 41.1081 19.4021 40.9403C19.2604 40.799 19.0567 40.7372 18.9416 40.852ZM17.9853 40.1367C17.9233 40.2515 18.0118 40.3928 18.1889 40.4811C18.3306 40.5694 18.5077 40.5429 18.5697 40.4193C18.6317 40.3045 18.5432 40.1632 18.3661 40.0749C18.1889 40.0219 18.0473 40.0484 17.9853 40.1367ZM20.8543 43.2804C20.7127 43.3952 20.7658 43.6602 20.9695 43.8279C21.1731 44.031 21.4299 44.0575 21.545 43.9162C21.6601 43.8014 21.607 43.5365 21.4299 43.3687C21.2351 43.1656 20.9695 43.1391 20.8543 43.2804ZM19.8449 41.9823C19.7032 42.0706 19.7032 42.3002 19.8449 42.5033C19.9865 42.7064 20.2256 42.7947 20.3407 42.7064C20.4824 42.5916 20.4824 42.362 20.3407 42.1589C20.2168 41.9558 19.9865 41.8675 19.8449 41.9823Z" fill="#172E28"/>
</g>
<defs>
<clipPath id="clip0_504_32">
<rect width="43.9213" height="45.2131" fill="white" transform="translate(10.3345 9.68851)"/>
</clipPath>
</defs>
</svg>
