<svg width="64" height="64" viewBox="0 0 64 64" fill="none" xmlns="http://www.w3.org/2000/svg">
<circle cx="32.0279" cy="31.9721" r="31.9721" fill="#D9D9D9"/>
<g clip-path="url(#clip0_504_33)">
<path d="M21.7931 49.2503H13.6247V22.8377H21.7931V49.2503ZM17.7045 19.2348C15.0925 19.2348 12.9739 17.0624 12.9739 14.4397C12.9739 13.1799 13.4723 11.9717 14.3594 11.0809C15.2466 10.1901 16.4499 9.68967 17.7045 9.68967C18.9592 9.68967 20.1624 10.1901 21.0496 11.0809C21.9367 11.9717 22.4352 13.1799 22.4352 14.4397C22.4352 17.0624 20.3156 19.2348 17.7045 19.2348ZM52.3651 49.2503H44.2142V36.3928C44.2142 33.3285 44.1526 29.3989 39.9673 29.3989C35.7203 29.3989 35.0695 32.728 35.0695 36.172V49.2503H26.9099V22.8377H34.7441V26.4406H34.8585C35.949 24.3654 38.6129 22.1754 42.5872 22.1754C50.8542 22.1754 52.3739 27.6416 52.3739 34.7414V49.2503H52.3651Z" fill="#172E28"/>
</g>
<defs>
<clipPath id="clip0_504_33">
<rect width="39.4" height="45.2131" fill="white" transform="translate(12.9739 9.68854)"/>
</clipPath>
</defs>
</svg>
